<?xml version="1.0" encoding="UTF-8"?>
<svg version="1.1" viewBox="0 0 2048 500" width="650" height="159" xmlns="http://www.w3.org/2000/svg">
<path transform="translate(103,107)" d="m0 0h44l24 1 21 3 17 5 12 5 12 7 9 7 5 2 7-7 13-8 14-6 13-4 17-3 10-1 22-1h47l1 1 1 128-1 112-9 1-38 2-24 3-20 4-13 4-19 9-11 8-2 3h131l22 1v-227h15l1 1v239l-1 1-154 1-7 9-7 5-4 1h-11l-7-3-6-5-4-7-155-1-1-1v-240h15l1 1v225h153l1-2-4-2-14-9-17-7-21-6-25-4-21-2-34-1-1-1v-240zm5 8-1 1v225l49 3 23 3 16 4 21 8 21 12 1-175v-54l-7-7-15-9-14-5-13-3-17-2-19-1zm231 0-31 2-20 4-13 5-11 6-10 9-1 86v77l1 67 5-2 9-6 17-8 18-6 24-4 27-2 30-1v-227z" fill="#389E4D"/>
<path transform="translate(1099,193)" d="m0 0h27l15 2 12 3 12 5 12 7 8 7 8 13 4 10 2 11v19l-4 16-6 10-7 9-9 7-14 7-15 4-21 3h-23l-19-3-15-4-10-5-12-9-10-13-5-12-2-9v-22l4-15 5-10 8-10 14-10 15-6 17-4zm12 27-17 2-13 4-8 6-7 8-4 10-1 12 2 11 5 10 8 7 12 6 7 2 8 1h20l15-3 12-6 8-7 5-9 1-5v-19l-4-10-9-10-10-5-9-3-13-2z" fill="#389E4D"/>
<path transform="translate(727,196)" d="m0 0h77l25 1 1 1v24l-1 1-11 1h-81v19l88 1v27l-48 1h-40v23h78l16 1v26l-64 1h-65l-1-4v-121l1-1z" fill="#389E4D"/>
<path transform="translate(526,197)" d="m0 0h99l15 3 11 6 7 8 4 10 1 5v15l-4 12-8 9-10 6-5 1 8 10 11 13 11 14 8 9 2 4-4 1-36-1-10-12-9-11-12-14-6-8-38-1v46l-3 1h-31l-1-1zm61 26-26 1v26h54l8-2 4-3 2-7-1-8-4-5-3-1-18-1z" fill="#389E4D"/>
<path transform="translate(1274,193)" d="m0 0h29l19 3 23 6 2 1v28l-5-1-25-7-14-3h-26l-12 3-6 3 1 6 6 4 17 4 25 6 21 6 13 7 10 9 5 10v16l-4 10-7 8-8 6-16 5-10 2-15 1h-18l-21-2-25-5-9-4v-29l5 1 14 6 25 5 9 1h25l13-3 6-4 1-1v-5l-1-3-5-2-8-3-26-6-17-4-21-7-9-6-8-9-4-10v-8l3-10 6-9 7-6 12-5 15-4z" fill="#389E4D"/>
<path transform="translate(896,196)" d="m0 0h33l38 1 15 3 11 6 6 7 5 9 3 16-2 17-5 10-6 7-14 7-11 3-11 1-59 1v37l-4 2h-30l-2-3v-122l1-1zm4 27-2 1v31l1 1h58l8-3 5-4 2-5v-8l-3-7-7-4-13-2z" fill="#399E4E"/>
<path transform="translate(1868,196)" d="m0 0h83l5 1v25l-1 1-49 1h-35l-1 21 83 1v26l-2 1h-80l-1 49-4 1h-30l-1-1v-125z" fill="#389E4D"/>
<path transform="translate(1719,196)" d="m0 0h66l21 1v26l-45 1h-41l1 4v17l81 1v26l-1 1h-81v49l-5 1h-29l-1-1v-125z" fill="#389E4D"/>
<path transform="translate(1475,196)" d="m0 0h86l28 1v27l-53 1-1 97-17 1h-17l-1-1v-97h-51l-2-1-1-3v-11l1-13z" fill="#389E4D"/>
<path transform="translate(1611,197)" d="m0 0h34l1 1v124l-34 1-1-1z" fill="#389E4D"/>
<path transform="translate(1390,197)" d="m0 0h34v125h-34l-1-10v-83z" fill="#3B9F50"/>
</svg>
