<?xml version="1.0" encoding="UTF-8"?>
<svg version="1.1" viewBox="0 0 1492 1492" width="373" height="373" xmlns="http://www.w3.org/2000/svg">
<path transform="translate(373)" d="m0 0h80l52 5 40 5 39 7 41 9 31 9 28 9 24 9 27 11 9 5 5-1 20-9 30-12 36-12 36-10 41-9 41-7 33-4 51-5h82l8 7 3 6v389h29v-294l1-1h28l9 2 7 6 2 7v280l28-1v-98l1-2h102l14 2 12 5 10 6 11 10 10 15 4 11 2 16v779l-1 13-5 15-6 10-7 9-8 7-12 7-13 4-6 1-359 1-1 8v32l3 26 4 22v5h17l25 2 17 4 16 6 18 10 14 11 12 12 11 15 10 19 7 21 3 18 1 18v28l-2 11-5 8-6 4h-763l-8-7-4-13v-41l2-18 5-19 9-21 9-14 7-9 15-15 17-12 21-10 18-5 12-2 28-1 7-1 5-25 2-21v-47h-362l-12-3-13-7-10-8-7-8-7-11-4-10-2-8v-800l4-13 6-11 8-10 7-7 13-8 15-5 7-1h104l1 1v100l28-1 1-282 4-7 7-4 6-1h28l1 1v294h29v-40l1-350 4-6zm370 118-8 3-5 6-1 2-1 9v263l1 1h34v-272l-4-6-4-4-5-2zm-282 27-6 4-4 6-1 3v9l4 8 7 4 21 3 159 18 12 1 8-3 6-7 1-3v-10l-3-6-6-5-17-3-106-12-61-7zm554 0-121 14-53 6-8 2-7 6-3 9 2 9 7 8 3 1h14l144-16 33-4 9-3 6-7 1-4v-7l-5-10-6-4zm-554 102-7 5-4 8v9l4 8 5 3 5 2 50 6 61 7 73 8h7l9-5 4-8v-10l-4-7-6-4-9-2-81-9-95-11zm557 0-130 15-46 5-11 3-6 7-2 9 3 9 5 5 6 3 16-1 169-19 9-2 7-4 3-5 1-10-3-8-8-7zm-556 102-6 4-5 6-1 4v9l3 6 5 4 5 2 48 6 80 9 33 3h37l5-5 2-4v-11l-4-7-7-4-20-3-107-12-60-7zm557 0-102 12-79 9-7 3-5 5-2 3-1 8 3 9 5 4h37l51-5 104-12 11-3 5-4 3-7v-7l-4-9-6-5-2-1zm-807 756v1h7v-1zm14 0 4 1zm6 0v1h1047v-1zm459 32-6 3-5 6-2 6 1 8 5 8 3 3 11 2h82l22-1 6-4 4-6 1-4v-8l-3-6-7-6-3-1zm-117 74-1 5v36l-3 34-3 20h357l-1-10-4-36v-48l-1-1z" fill="#339C47"/>
<path transform="translate(333,411)" d="m0 0h27l1 1 1 38 1 119 3 7 4 3 6 2 8 1 33-1h19l53 2 18 1 8 2h9l33 4 36 5 38 9 26 8 24 9 26 12 24 13 11 5h8l16-8 15-8 23-11 31-12 30-9 29-7 34-6 30-4 21-2 38-2 44-1h54l9-4 4-5 1-3 1-103v-22l1-2h28l1 29v96l-3 16-6 11-7 7-13 6-16 4h-59l-40 1-41 3-36 4-26 4-36 8-31 9-28 11-25 12-19 10-9 5-1 46 7-3 16-10 14-7 30-11 27-7 36-6h6l2 2v6l2 1v-2l4-1 2-5 12-2 40-1h31l2 5-2 5 15 1 5 1-1-8h-2l2-5 1-1h39l59 5 50 6 24 4h8l9-8 3-8v-232l2-2h42l1-3h-44l-1-1v-15l1-11h79l6 3 2 10v14l-2 1h-21l1 2 22 1 1 19v626l-2 10-8 7-5 1-1060 1-11-2-6-5-3-6-1-8-1-54v-555l1-5h87l1 6 1 196 2 10 7 6 6 2 59-8 50-5 28-2 30-1h63l25 1 47 5 24 4 32 8 25 9 12 6 1 2-34-2 1 21 33 1 24-1v-2l5-1v-46l-1-2-8-4-10-6-15-8-25-11-27-10-31-9-36-8-36-5-31-3-34-2-98-1-13-3-14-7-8-8-5-10-3-12v-158z" fill="#FBFCFB"/>
<path transform="translate(554,852)" d="m0 0h17l14 5 10 7 6 5 7 11 5 14 1 10-2 12-8 16-6 8-12 9-9 4-4 1h-17l-13-4-13-8-6-5-6-10-4-15v-18l3-12 6-10 7-8 12-8z" fill="#B3F680"/>
<path transform="translate(732,853)" d="m0 0h19l12 4 11 7 9 9 6 12 2 12v16l-3 12-6 10-9 9-11 7-8 3-13 1-13-2-14-7-12-11-6-10-4-13v-16l5-15 6-10 8-8 14-8z" fill="#B3F680"/>
<path transform="translate(920,853)" d="m0 0h14l13 4 10 6 7 6 7 10 4 10 1 9v16l-2 9-6 10-9 10-9 6-9 4-4 1h-18l-15-5-12-9-8-10-5-10-2-7v-18l4-12 6-10 9-10 10-6 9-3z" fill="#B3F680"/>
<path transform="translate(1022,452)" d="m0 0h7l6 3 6 9 1 10-3 6-4 4-11 3-40 5-62 7-54 6-25 3-9-1-7-5-4-8v-7l4-8 6-5 6-2 41-4 22-3 69-7 41-5z" fill="#F9FCF6"/>
<path transform="translate(461,453)" d="m0 0h16l118 13 32 4 24 2 10 3 6 7 1 2v12l-4 6-6 5-10 1-124-14-56-7-9-2-7-5-2-5v-8l4-8z" fill="#F8FCF6"/>
<path transform="translate(730,411)" d="m0 0 33 1 1 59v81l-1 12v12l-3 8-4 5-6 3h-10l-7-4-3-7h14l7-2 3-4 1-9-4-7-4-3-3-1-16-1v-83l1-59z" fill="#FAFCF9"/>
<path transform="translate(1206,411)" d="m0 0h79l6 3 2 10v14l-2 1h-21l1 2 22 1 1 19v15l-1-4h-86l-1 191h-1v-220l2-2h42l1-3h-44l-1-1v-15z" fill="#B4F781"/>
<path transform="translate(212,411)" d="m0 0h73l1 1v65h-1v-6l-31 1h-37l-18-1-1-17v-31l2-7 6-4z" fill="#B4F781"/>
<path transform="translate(928,872)" d="m0 0h13l5 2 1 4h-3l-1-1v16l7-5 5 1 4 7 1 5v16h3l-2 7-7 8-10 6-12 2-33-1-6-2-1-10v-31l2-5 5-3 2-9 5-3 6 1 4 3 3 11 3 2 2-7v-7h-2v-5z" fill="#33522D"/>
<path transform="translate(566,872)" d="m0 0 10 3-1-3h11l7 1 2 5 1 53-3 2h-56l-6-2 1-10 8-29 3-14 2-2 19-1z" fill="#33522D"/>
<path transform="translate(748,871)" d="m0 0h7l8 3 3 3v4l7-2 3 3v9l-2-1 1 28 1 1v7l-7 3h-16l-1-3 4-1 16-1 2-4h-30v3l-5-1-1-1h-24l-6-1-1-2v-17l1-21 2-1h24v3l5-4 3-5z" fill="#33562E"/>
<path transform="translate(730,411)" d="m0 0 33 1 1 59v81h-1l-1-79h-32l-1 80h13v1h-14v-83l1-59z" fill="#B4F781"/>
<path transform="translate(1022,452)" d="m0 0h7l6 3 6 9 1 10-1-3-14 2h-188v-1l41-4 22-3 69-7 41-5z" fill="#B4F781"/>
<path transform="translate(461,453)" d="m0 0h16l118 13 32 4 11 1v1l-56 1h-118l-12-1-2 3v-8l4-8z" fill="#B4F781"/>
<path transform="translate(333,411)" d="m0 0h27l1 1 1 38v115h-1v-93h-28l-1 3v-62z" fill="#B4F781"/>
<path transform="translate(928,872)" d="m0 0h13l5 2 1 4h-3l-1-1v16h9l3 6 1 9-6 5-7 1-3-1v2h-23l2-6 2-4v-4l-4-1-2-3-3-1h-7l-6 3-5 6 1 4 5 1 8 4v1l-14 2 8 4 10 11 3 2v2l-16-1-2-1-2-4-2 2-1-5v-31l2-5 5-3 2-9 5-3 6 1 4 3 3 11 3 2 2-7v-7h-2v-5z" fill="#376133"/>
<path transform="translate(753,874)" d="m0 0 5 1 2 3v3l-13 1 1 14-3 1v2l5 2h7l5-3 1-7-4-6 4-1 5 5 1 8v19l-1 1h-51l-3-2v-24l1-4 2-1h18l3 1 3 11h3l-2-9-1-6h2l2-7 4-1 4 1z" fill="#B4F781"/>
<path transform="translate(1013,676)" d="m0 0h39v1h-38l1 4v8l-1 2-41 1h-70l-3-1v-10l2 1v6l2 1v-2l4-1 2-5 12-2 40-1h31l2 5-2 5 15 1 5 1-1-8h-2l2-5z" fill="#B4F781"/>
<path transform="translate(1131,442)" d="m0 0h28l1 29v24h-1v-23h-27l-1 21h-1v-49z" fill="#B4F781"/>
<path transform="translate(507,585)" d="m0 0h6l2 1h9l33 4 36 5-5 5-32 1-2 1-15-1-23-1-3-1-1-2v-11h-5z" fill="#B4F781"/>
<path transform="translate(1131,411)" d="m0 0h27l1 1v25l-1 1h-27l-1-1v-24z" fill="#B4F781"/>
<path transform="translate(708,920)" d="m0 0h31l1 2 4 1v-3h30l-2 5-20 1v2h-2l4 9v2l-15 1-8-1-1-4 3-8-15 2h-6l-4-3z" fill="#33582F"/>
<path transform="translate(208,426)" d="m0 0h21l1 5-6 5-1 6 5 1-1 5-4 8-2 1h-12l-1-1-1-16v-12z" fill="#339C47"/>
<path transform="translate(908,919)" d="m0 0 22 1 27-1-1 6-11 8-10 3h-12l-2-3 6-1 4 1v-3h-8l-6 1-8-7z" fill="#B3F681"/>
<path transform="translate(586,883)" d="m0 0h5v38l-2-1-10-1v-35z" fill="#B4F781"/>
<path transform="translate(723,892)" d="m0 0h10l6 6 1 8-3 5-4 3h-9l-5-3-2-7 1-7z" fill="#33522D"/>
<path transform="translate(690,705)" d="m0 0 5 2 3 3-34-2 1 21 33 1 24-1v-2l5-1 1-2-1 8-1 1h-63l-1-2v-23l3-2h25z" fill="#B4F781"/>
<path transform="translate(732,560)" d="m0 0h10l6 4 1 1v8l-5 4-10 1-5-3-1-3v-7z" fill="#F1FCE9"/>
<path transform="translate(783,713)" d="m0 0 9 2h8l1-1 11 1v8l-1 1h-8l-2-6-2 1-2 5-13-1-8 1-7-1 5-4z" fill="#B0F381"/>
<path transform="translate(711,920)" d="m0 0h28l1 2 4 1v-3h30l-2 5-22 1-10-1h-29l-1-2z" fill="#B4F781"/>
<path transform="translate(547,879)" d="m0 0h6l-5 20-5 17-1 8 1 3h-7l1-10 6-22 3-15z" fill="#ACF17D"/>
<path transform="translate(550,592)" d="m0 0 6 2 24 2v-2l13 1-5 5-32 1-6 1-3-2 1-6z" fill="#AEF37E"/>
<path transform="translate(949,893)" d="m0 0h3l3 6 1 9-6 5-7 1-3-1-1-6 4-4h2v-9z" fill="#60A152"/>
<path transform="translate(672,712)" d="m0 0h8l1 2-1 2 3-3h8l2 4v5l-3 2-13-1-7-4-1 2-2-1v-3h2v-2h-2v-2h4z" fill="#B2F680"/>
<path transform="translate(564,888)" d="m0 0h1v19l-1 7h-8v-22l1-2z" fill="#B4F781"/>
<path transform="translate(516,587)" d="m0 0 16 1 16 2v3h-2v2l-16 1-12-1-2-2z" fill="#FDFDFD"/>
<path transform="translate(697,712)" d="m0 0h6l15 8 3 4h-25l-2-2 1-5z" fill="#B3F680"/>
<path transform="translate(568,886)" d="m0 0 6 1 1 29 1 3h-9z" fill="#50B054"/>
<path transform="translate(710,879)" d="m0 0h24v3l-3 1-16 1-2 4-1 7h-2v8h-2v2h2v6h-1l-1 7h-1v-17l1-21z" fill="#369445"/>
<path transform="translate(895,919)" d="m0 0 7 2 10 11 3 2v2l-16-1-2-1-2-10z" fill="#B4F781"/>
<path transform="translate(763,680)" d="m0 0h1v44l4 1-4 1-2-2-14-2-1-4 2-3h14z" fill="#B4F781"/>
<path transform="translate(760,878)" d="m0 0 1 4-2 2h-6l1 6 2 1-4 8 3 1-1 1h-6l-3-2v-2l2-1-1-14 1-1 11-1 2 1z" fill="#33592F"/>
<path transform="translate(759,883)" d="m0 0 4 1-3 2 4 5-1 7-6 4h-7l4-2-2-1 1-4 2-4-1 1h-1v-8z" fill="#336935"/>
<path transform="translate(923,902)" d="m0 0 8 6 8 5-1 2h-21l2-6z" fill="#B1F57F"/>
<path transform="translate(753,874)" d="m0 0 5 1 2 3v3l-13 1 1 14-4 1-3-14h2l2-7 4-1 4 1z" fill="#B4F781"/>
<path transform="translate(550,900)" d="m0 0h2l1 16v11l-1 1h-6v-12z" fill="#B4F781"/>
<path transform="translate(892,896)" d="m0 0h1l1 9 1 4 5 1 8 4v1l-14 2 2 7v5l-3 3-1-5z" fill="#33813D"/>
<path transform="translate(727,895)" d="m0 0 4 1 4 4v6l-5 4-6-2-3-3 1-4z" fill="#62B85A"/>
<path transform="translate(269,442)" d="m0 0h13l1 4-3 4h-2l-3-5-1 1v6l1 3-16 1-2-1v-3l8-1v2l6-1-2-4-1-5z" fill="#337238"/>
<path transform="translate(679,800)" d="m0 0 6 1 2 2 1 8 1-5h2l-1 8-2 1h-9z" fill="#93E072"/>
<path transform="translate(773,893)" d="m0 0h1l1 25 1 1v7l-7 3h-16l-1-3 4-1 16-1 1-4z" fill="#33582F"/>
<path transform="translate(905,890)" d="m0 0h8l4 2 1 4-3 1-3-1h-7l-6 3-3 4h-2l1-7 6-5z" fill="#B4F781"/>
<path transform="translate(906,900)" d="m0 0 11 1-2 9-5 1-1-3-8-1-1-4z" fill="#B1F580"/>
<path transform="translate(545,902)" d="m0 0 1 3-4 17 1 5h-7l1-10 4-13z" fill="#B4F781"/>
<path transform="translate(941,905)" d="m0 0h8l6 1-1 4-7 4-7-1-1-6z" fill="#B1F57F"/>
<path transform="translate(743,927)" d="m0 0 4 2 1 7h-13l-1-2 2-5z" fill="#B4F781"/>
<path transform="translate(507,585)" d="m0 0h6l2 1h9l24 3v1h-9l-23-3v8l1 3-5-1v-11h-5z" fill="#95E173"/>
<path transform="translate(931,884)" d="m0 0 2 1h2l3-1 1 5h-7v12l4 1-1 2-4-1-3-3-1-9 3-6z" fill="#B2F580"/>
<path transform="translate(814,715)" d="m0 0h9l1 7-1 1h-9l-1-7z" fill="#B2F580"/>
<path transform="translate(708,920)" d="m0 0h3v4l16 1 2 3-17 1-4-3z" fill="#337339"/>
<path transform="translate(940,991)" d="m0 0h4l1 2v9l-6 1-1-3z" fill="#B3EB97"/>
<path transform="translate(554,591)" d="m0 0 23 3 3 2h-15l-9-1-3-3z" fill="#FDFDFD"/>
<path transform="translate(272,447)" d="m0 0h1l2 8-16 1-2-1v-3l8-1v2l6-1-1-4z" fill="#339444"/>
<path transform="translate(237,442)" d="m0 0h10v7l-10-1-1-5z" fill="#338F42"/>
<path transform="translate(796,800)" d="m0 0h3l1 9 1-4h3l-2 10-6 1z" fill="#90D96F"/>
<path transform="translate(894,908)" d="m0 0 13 5 1 2-13 1z" fill="#B4F781"/>
<path transform="translate(932,888)" d="m0 0 7 2-3 1-1 9-1 2-3-1v-12z" fill="#335D31"/>
<path transform="translate(558,919)" d="m0 0 6 1v8h-7v-8z" fill="#B4F781"/>
<path transform="translate(564,973)" d="m0 0h4v7l-1 1-2 14-3 1 2-17z" fill="#85C16A"/>
<path transform="translate(617,985)" d="m0 0h2v2l3 1v5l-3 1v2h-4v-9z" fill="#ADE09E"/>
<path transform="translate(554,972)" d="m0 0h3l-1 23-2 1-1-15z" fill="#75B05B"/>
<path transform="translate(580,921)" d="m0 0 4 2h5l2-1 1 4-1 2h-11z" fill="#B7F787"/>
<path transform="translate(580,874)" d="m0 0 10 1 1 5h-11z" fill="#B4F781"/>
<path transform="translate(789,804)" d="m0 0 4 1v11h-4l1-9-2-1-1 8-2 1 1-10z" fill="#7FD068"/>
<path transform="translate(753,885)" d="m0 0 3 1 3 6-1 4-3 3h-3l1-4 2-4-1 1h-1z" fill="#B4F781"/>
<path transform="translate(740,804)" d="m0 0h3v9l1-1 1-7h2v7l-1 3h-6z" fill="#97DC71"/>
<path transform="translate(236,452)" d="m0 0h18l1 3h-18z" fill="#338E42"/>
<path transform="translate(556,879)" d="m0 0h9v6h-8z" fill="#B4F781"/>
<path transform="translate(749,985)" d="m0 0h2v2h2l-1 7-4 2-1-1v-7z" fill="#A7E58B"/>
<path transform="translate(719,804)" d="m0 0 3 1v9l-3 2-6-1 1-10h2v9h4z" fill="#7BCE67"/>
<path transform="translate(258,442)" d="m0 0 8 1v5h-9v-5z" fill="#337A3B"/>
<path transform="translate(569,878)" d="m0 0 6 1 1 4-1 2h-7v-6z" fill="#B4F781"/>
<path transform="translate(550,592)" d="m0 0 3 1 2 4-2 4-3 1-3-2 1-6z" fill="#339C47"/>
<path transform="translate(923,892)" d="m0 0h1v10l-2 1-1-2-4-1-1-4h2l1-2z" fill="#3DA34B"/>
<path transform="translate(772,984)" d="m0 0h4l1 2v7h-2l-1 2-3-1z" fill="#9EE27C"/>
<path transform="translate(770,803)" d="m0 0h2l1 2v11h-6l-2-2v-6l2-1 1 8h2l1-9z" fill="#6FBE5F"/>
<path transform="translate(208,426)" d="m0 0 8 1-3 7-4-2h-2z" fill="#33512D"/>
<path transform="translate(491,987)" d="m0 0h2l-1 6h4v-5h3l-2 7h-7l-1-5z" fill="#A1EA78"/>
<path transform="translate(815,805)" d="m0 0h3l1 10h-6l1-9z" fill="#85D46B"/>
<path transform="translate(580,919)" d="m0 0h9l2 3-2 2h-5l-4-3z" fill="#336A35"/>
<path transform="translate(780,970)" d="m0 0 4 1 1 5-2 4-3-1z" fill="#98D183"/>
<path transform="translate(923,929)" d="m0 0 8 1v3h-11l-2-2z" fill="#339946"/>
<path transform="translate(714,804)" d="m0 0 5 1 1 1v8h-4v-9z" fill="#EFFBE6"/>
<path transform="translate(1e3 678)" d="m0 0 6 2v2l-4 2-6-1v-3z" fill="#B4F781"/>
<path transform="translate(773,893)" d="m0 0h1l1 25 1 1v7h-1l-2-6z" fill="#339C47"/>
<path transform="translate(753,874)" d="m0 0 5 1 2 3v3h-10l3-4z" fill="#63BE5C"/>
<path transform="translate(681,802)" d="m0 0 3 1v9h2l-1 2h-4z" fill="#FBFCF9"/>
<path transform="translate(892,896)" d="m0 0h1l1 9 1 6v5h-3z" fill="#339745"/>
<path transform="translate(936,892)" d="m0 0h4l1 4-1 4-3 1-1-1z" fill="#B4F781"/>
<path transform="translate(568,924)" d="m0 0h8l-1 5-7-1z" fill="#B6F784"/>
<path transform="translate(248,442)" d="m0 0h6l1 2-1 4-5-1z" fill="#337539"/>
<path transform="translate(716,971)" d="m0 0h1v7h2v-6l2-1v7l-3 2h-3v-7z" fill="#7DCB66"/>
<path transform="translate(737,984)" d="m0 0 3 1 1 2v7l-1 2-4-1 2-2z" fill="#9EE175"/>
<path transform="translate(927,979)" d="m0 0h4v8h-3l-1-2z" fill="#91CF6C"/>
<path transform="translate(706,970)" d="m0 0h3v9l-3 1z" fill="#7AB25D"/>
<path transform="translate(915,906)" d="m0 0 2 4 2-1-2 6h-3l-1-2-3-2 5-1z" fill="#339C47"/>
<path transform="translate(532,987)" d="m0 0 1 2-1 6 3-2 2-3-1 6-5 1-1-1 1-8z" fill="#61B95A"/>
<path transform="translate(520,984)" d="m0 0h1v12h-3v-7z" fill="#A6ED7A"/>
<path transform="translate(906,879)" d="m0 0 5 1v4l-6 1z" fill="#B4F781"/>
<path transform="translate(635,986)" d="m0 0h2l1 6 2-1-1 4h-4l-1-3z" fill="#7FBE62"/>
<path transform="translate(698,971)" d="m0 0h3v7l-2 2-3-1 1-1z" fill="#8DDC6F"/>
<path transform="translate(970,993)" d="m0 0h3v9l-3-1z" fill="#33843E"/>
<path transform="translate(740,804)" d="m0 0h3v10h-2l-1-3z" fill="#91D76F"/>
</svg>
