<?xml version="1.0" encoding="UTF-8"?>
<svg version="1.1" viewBox="0 0 2048 2048" width="512" height="512" xmlns="http://www.w3.org/2000/svg">
<path transform="translate(1119,63)" d="m0 0h380l16 2 10 6 7 8 4 11v37h349l14 2 10 6 7 8 4 10v1574h31l12 2 9 5 8 9 3 6 1 4v142l-7 14-8 7-8 3-6 1h-1865l-11-4-9-8-6-12-1-11v-125l1-9 5-10 5-6 10-6 11-2 68-1-19-5-26-7-19-5-12-6-7-7-5-11-1-9 4-18 22-83 18-67 15-56 27-101 25-93 16-60 23-86 19-71 11-41 16-59 11-42 33-123 16-59 11-42 33-123 16-59 11-42 22-82 15-56 12-45 7-24 5-9 7-7 8-4 3-1h14l17 4 67 18 142 38 40 11 7 2v-8l2-11 4-8 5-6 8-5 5-2 7-1h289v-161l2-9 4-8 5-5 5-4 8-4zm34 65-1 2v125l5 1h312l2-1v-127zm384 64-1 11v148l5 1h311l3-1v-159zm-1026 103-3 8-11 42-18 67-22 82-17 63-11 42-22 82-27 101-25 93-20 75-22 82-15 56-27 101-18 67-15 56-27 101-22 82-23 86-18 67-1 6 17 5 34 9 78 21 36 10 42 11 36 10 3-1 4-12 11-42 18-67 27-101 21-78 20-75 15-56 21-78 13-48 11-42 22-82 15-55 11-42 22-82 15-55 11-42 26-97 18-67 13-48 11-42 18-67 20-75 1-5-8-3-48-13-42-11-56-15-67-18-23-6zm322 25-1 2v190h252l3-1v-191zm320 0-1 23v1192l6 1h311l2-1v-1215zm384 96-1 19v1068l6 1h310l3-1v-1087zm-771 160-13 50-13 48-10 38-23 86-15 55-11 42-22 82-18 67-19 71-22 82-12 44-11 42-44 164-15 56-22 82-12 44-11 42-12 44-3 12 307 1 2-1v-1151zm67 0-1 23v744l6 1h246l3-1v-767zm0 832-1 2v61l252 1 3-1v-63zm0 128-1 19v172l253 1 2-1v-191zm704 32-1 2v157l316 1 3-1v-159zm-384 32-1 11v116l317 1 2-1v-127zm-1024 192-1 3v60h1791v-63z"/>
<path transform="translate(1247,447)" d="m0 0h125l12 1 12 6 8 9 4 10v910l-4 10-9 10-10 4-6 1h-137l-11-4-9-8-6-12-1-8v-898l2-9 4-8 5-5 8-6 5-2zm34 65-1 2v829h63v-831z"/>
<path transform="translate(529,597)" d="m0 0 17 4 37 10 8 3-2 10-18 68-26 97-12 44-11 42-22 82-18 67-63 235-22 82-4 14-5 1-52-14-6-2 1-8 14-53 22-82 18-67 27-101 17-63 13-48 11-42 18-67 33-123 23-85z"/>
<path transform="translate(305,1432)" d="m0 0 10 2 46 12 7 3-3 11-18 68-12 44-10-1-48-13-5-2 1-8 21-78 10-37z"/>
<path transform="translate(578,412)" d="m0 0 8 1 53 14 2 4-7 25-17 64-1 2-5-1-18-5-34-9-6-2 4-17 20-75z"/>
</svg>
