<?xml version="1.0" encoding="UTF-8"?>
<svg version="1.1" viewBox="0 0 2048 2048" width="512" height="512" xmlns="http://www.w3.org/2000/svg">
<path transform="translate(1278)" d="m0 0h122l12 5 11 8 8 9 6 12 2 7 1 69 33 11 26 11 23 12 4-1 44-44 14-8 7-2 13-1 13 2 14 7 13 11 61 61 10 13 5 11 2 8v13l-3 12-6 11-11 13-19 19-6 5-5 6-4 4 255 1 18 2 19 5 16 7 14 8 14 11 13 13 9 12 8 14 4 8 6 17 3 8h1v1241h-2l-4 15-6 16-9 15-8 11-11 12-9 8-10 7-14 8-17 7-21 5-9 1-20 1h-659l1 2 2 52 5 74 5 49 6 42 5 27 1 3 107 1 10 3 8 6 6 8 3 10v9l-5 11-7 8-5 3-5 1v2h-725v-2l-6-2-9-8-5-10-1-3v-10l4-11 7-8 10-6 4-1h109l5-27 5-33 4-35 3-34 4-59 3-61-242-1-14-2-8-5-5-5-5-8-2-6v-10l4-10 2-4h2l2-4 10-6 3-1 436-1h902l44-1 15-4 14-7 11-9 8-10 7-14 4-17 1-134h-1926v122l2 21 6 16 9 13 7 7 14 9 9 4 13 3 12 1h262l22 1 9 4 8 7 5 9 1 3v15l-5 10-7 7-8 4-5 1-19 1h-259l-27-2-18-4-18-7-14-8-13-10-13-12-9-11-9-14-8-16-8-27v-1231l8-26 8-17 11-16 11-13 8-7 12-9 14-8 10-5 15-5 16-3 11-1 888-1-14-14v-2l-3-1-3-3v-2h-2v-2h-2l-6-7-13-13-6-9-4-10-1-5v-16l4-13 6-10 12-13 63-63 10-7 13-5 11-1 12 1 12 5 9 6 12 11 33 33 4-1 15-8 27-12 20-7 16-5h3v-65l4-16 7-11 5-5 8-7zm23 61v34l-1 31-2 9-5 10-7 9-7 6-16 7-29 9-15 6-22 10-20 11-12 4-6 1h-12l-14-4-11-7-43-43-5 2-6 6v2l-4 2v2l-4 2v2l-4 2-7 8-8 7-5 6-4 3v2l-4 2-4 4 1 5 8 7 27 27 9 11 7 14 2 9v11l-3 12-16 32-9 19-7 20-10 30-7 11-9 8-12 6-7 2-10 1-58 1v73l1 4 65 1 13 4 11 7 7 7 7 12 15 45 9 20 16 32 3 9 1 5v10l-4 15-7 12-10 10v2l-4 2v2l-4 2v2l-4 2v2l-4 2v2l-4 2-10 10v2l-3 1 1 4 52 52 3-1 7-8 33-33 10-7 10-4 5-1h18l13 4 28 15 23 10 45 15 11 7 7 7 7 12 3 11 1 65 1 1h75l1-1 1-60 3-14 5-10 7-9 13-9 48-16 24-11 27-14 5-2 6-1h18l10 3 11 6 17 16 11 11 5 6 8 7 6 5 53-53-2-5-41-41-8-14-3-11v-13l3-12 19-37 10-25 12-37 7-11 4-5 10-7 12-5 4-1 65-1 1-1v-76l-61-1-14-3-11-6-10-9-8-14-10-32-10-25-20-40-3-11v-13l4-14 6-10 14-15 30-30-2-5-7-6-5-6h-2l-2-4-32-32-4-2-8 7-35 35-11 7-11 4-6 1h-12l-12-3-41-21-26-10-29-9-11-6-10-9-7-12-3-10-1-7-1-60zm-1172 285-16 2-13 5-10 6-12 11-6 8-8 16-3 14-1 23v987h64l1-921 2-16 4-12 7-13 8-10 9-8 14-8 11-4 12-2 677-1 4-19 5-10 9-10 5-4 11-6 9-2 67-1 3-5 5-16v-4zm1563 0 3 11 5 14 67 1 11 3 10 5 11 10 6 10 4 12 2 11 45 1 15 3 14 6 11 8 7 6 8 11 8 16 3 13 1 931h64v-1009l-3-14-5-12-7-11-11-11-15-9-16-5-12-1zm-1496 138-7 4-3 6v924h1675l1-2v-921l-4-7-6-4h-41l-1 36-2 12-4 10-6 10-9 8-12 6-15 3-62 1-4 10-9 27-11 25-10 19-1 4 42 42 9 13 4 11 1 5v12l-3 13-6 11-11 12v2l-4 2v2l-4 2v2l-4 2v2l-4 2-12 12v2l-4 2v2l-4 2v2l-4 2v2l-4 2v2l-4 2v2l-4 2v2l-4 2v2l-4 2-10 9-10 5-11 3h-16l-11-3-12-7-8-7-5-6-7-6-1-2h-2l-2-4h-2l-2-4-15-15-5-1-28 14-25 10-29 10-1 50-1 19-3 11-6 10-7 8-11 7-13 4-7 1h-104l-14-3-11-6-9-8-7-11-4-11-1-6-1-65-32-11-19-8-25-12-6-3-5 1-5 5v2l-3 1-7 8-23 23-14 10-11 4-5 1h-15l-12-3-12-7-76-76-6-9-5-15v-16l4-13 6-10 9-10 37-37-2-5-13-26-10-25-10-29-65-1-13-3-11-6-9-8-7-11-4-11-1-6-1-40zm990 1252-326 1-1 8-3 59-3 48-4 45-4 35-6 40-2 10v5h374l-6-39-5-39-4-41-4-56-4-75z"/>
<path transform="translate(571,612)" d="m0 0h81l12 2 12 6 10 9 6 9 4 13 1 47 20 7 36 16 30-30 11-7 8-3 6-1h12l12 3 11 7 13 12 42 42 8 10 5 11 2 10-1 14-5 13-9 11-26 26 3 9 7 14 9 24 3 9 41 1 13 2 12 6 10 9 6 9 3 8 1 4 1 32v29l-1 30-4 13-9 12-11 8-12 4-5 1-45 1-7 21-10 23-5 10 2 4 26 26 7 10 5 12 1 13-2 11-4 9-8 11-54 54-13 8-10 3h-17l-11-4-8-5-10-9-22-22-6 1-16 8-26 10-9 3-1 48-4 13-9 12-11 8-11 4-5 1h-88l-10-3-9-5-8-7-6-9-4-9-2-11v-40l1-2-10-3-21-8-24-11h-3l-29 29-9 6-10 4-4 1h-17l-12-4-11-8-55-55-7-11-4-9-1-6v-11l4-13 6-10 9-10 22-22-2-6-9-19-9-24-2-5v-3h-47l-13-4-10-6-9-10-6-12-2-9v-85l3-11 5-10 12-12 10-5 6-2 7-1h44l3-10 8-22 9-19 2-5-7-8-22-22-7-10-4-11-1-4v-12l4-14 7-10 12-13 44-44 10-7 10-4 6-1h12l12 3 10 6 13 12 20 20 5-2 23-11 26-9h2v-43l3-14 6-11 11-11 12-6zm21 61-1 1-1 38-2 11-4 10-7 9-9 7-15 6-27 9-18 8-16 9-15 5h-12l-13-4-10-6-28-28-5 1-5 5v2l-3 1-7 8-8 8-5 4 2 5 26 26 7 12 3 10v15l-4 12-12 23-10 25-8 24-4 8-9 10-9 5-8 3-6 1-19 1h-21l-3 2v43l43 1 12 3 10 6 5 4 7 10 5 12 6 20 9 21 12 23 4 13v14l-4 13-7 10v2h-2l-7 8-14 14-4 3 1 4 28 28 5-1 9-9v-2h2v-2h2v-2h2v-2h2v-2l4-2 10-9 8-4 7-2h19l11 4 25 13 20 8 28 9 13 9 8 11 4 12 1 6 1 40h44l1-40 3-14 5-9 7-8 11-7 38-13 27-13 12-6 7-2h19l11 4 10 7 26 26 5-1 5-5v-2h2l7-8 14-14-6-7-5-6h-2l-2-4-14-14-8-16-1-5v-14l3-11 10-19 8-17 12-36 5-10 9-10 16-8 6-1 43-1v-45h-34l-15-2-10-4-9-7-6-7-6-13-9-27-10-23-10-19-3-10v-15l3-10 5-9 9-10 4-4v-2l4-2v-2l4-2 9-9-2-4-28-28-4 1-5 6-16 16-9 7-9 5-11 3h-12l-13-4-29-15-24-9-19-6-9-5-9-8-7-12-3-14-1-40z"/>
<path transform="translate(1324,237)" d="m0 0h31l23 3 20 4 17 5 20 8 16 8 17 10 19 14 13 12 8 7 7 8 10 12 12 17 12 21 9 21 7 21 5 22 3 25v30l-3 26-6 26-9 25-8 17-12 20-14 19-12 13-4 5-8 7-3 3h-2v2l-17 13-19 12-19 10-23 9-22 6-30 5-15 1h-17l-21-2-25-5-18-5-20-8-19-9-22-14-14-11-13-12-14-14-9-11-12-17-12-21-9-20-7-21-5-22-3-20-1-24 2-28 5-26 8-26 8-18 11-21 9-13 9-7 6-2h15l10 4 8 8 4 8 1 4v13l-4 9-13 23-6 15-6 18-4 24v34l4 23 6 20 7 16 8 15 12 17 12 13 8 8 10 8 10 7 16 9 15 7 18 6 20 4 9 1h31l21-3 21-6 21-9 17-10 16-12 12-11 11-12 11-16 9-16 8-19 5-18 3-17 1-10v-23l-3-23-7-25-8-18-10-18-13-17-10-11-8-7-13-10-18-11-17-8-18-6-18-4-6-1-16-1h-16l-19 2-24 5h-7l-10-3-7-5-7-10-3-11 2-12 6-10 7-6 9-4 16-4z"/>
<path transform="translate(606,820)" d="m0 0h14l20 2 21 5 20 8 15 8 14 10 14 12 8 8 11 14 11 18 8 17 6 19 3 15 1 8v32l-4 22-5 16-7 17-8 14-10 14-9 10-13 13-15 11-18 10-14 6-19 6-24 4h-27l-19-3-21-6-16-7-15-8-15-11-13-12-8-8-10-13-10-16-8-17-5-15-5-24-1-14v-10l2-20 4-18 6-18 8-16 9-15 13-16 15-15 11-8 16-10 17-8 15-5 17-4zm-7 62-15 3-17 7-11 7-13 11-11 13-10 18-5 16-2 10v26l4 17 5 12 9 16 11 12 10 9 15 9 12 5 16 4 9 1h14l14-2 18-6 15-8 13-10 12-13 8-13 5-11 4-13 2-12v-20l-3-16-6-17-8-14-9-11-7-7-14-10-17-8-13-4-6-1z"/>
<path transform="translate(1325,349)" d="m0 0h29l20 4 16 6 15 8 12 9 12 11 10 12 9 15 7 16 5 19 2 17-1 18-3 17-6 18-8 15-10 14-3 4h-2l-2 4-11 10-15 10-17 8-17 5-8 2-11 1h-18l-19-3-18-6-19-10-13-10-9-8-9-11-7-10-9-17-6-19-2-10-1-10v-15l3-20 5-16 9-19 12-17 15-15 18-12 17-8 13-4zm7 61-13 3-16 9-7 6-8 11-4 8-4 12-1 15 2 12 5 12 7 11 9 9 7 5 11 5 14 3h11l14-3 14-7 10-8 9-11 5-11 3-11v-19l-4-14-6-11-9-10-7-6-16-8-9-2z"/>
<path transform="translate(958,1546)" d="m0 0h124l17 1 10 4 9 9 4 8 1 4v10l-4 10-7 9-9 5-4 1-104 1h-34l-13-1-8-3-8-7-5-8-2-6v-11l4-11 7-8 12-6z"/>
<path transform="translate(659,2047)" d="m0 0"/>
<path transform="translate(1402)" d="m0 0"/>
</svg>
